<?xml version="1.0" encoding="utf-8"?>
<!-- Generator: Adobe Illustrator 17.0.0, SVG Export Plug-In . SVG Version: 6.00 Build 0)  -->
<!DOCTYPE svg PUBLIC "-//W3C//DTD SVG 1.1//EN" "http://www.w3.org/Graphics/SVG/1.1/DTD/svg11.dtd">
<svg version="1.1" id="Layer_1" xmlns="http://www.w3.org/2000/svg" xmlns:xlink="http://www.w3.org/1999/xlink" x="0px" y="0px"
	 width="37px" height="37px" viewBox="61.973 62.668 37 37" enable-background="new 61.973 62.668 37 37" xml:space="preserve">
<g>
	<path fill="#82A03A" d="M87.075,73.499h-1.719v-1.331h-0.931v1.331h-7.904v-1.331h-0.931v1.331H73.75
		c-1.216,0.001-2.201,0.988-2.201,2.203v12.225c0.003,1.238,1.008,2.241,2.246,2.241h13.274c1.284,0,2.326-1.041,2.326-2.326V75.819
		C89.394,74.538,88.356,73.5,87.075,73.499z M73.75,74.342h1.839v1.461h0.931v-1.461h7.904v1.461h0.931v-1.461h1.719
		c0.815,0.002,1.474,0.662,1.474,1.477v1.469H72.393v-1.597C72.401,74.946,73.005,74.345,73.75,74.342z M87.056,89.324h-13.26
		c-0.773,0-1.4-0.625-1.402-1.397v-9.71h16.156v9.625c-0.002,0.817-0.663,1.479-1.48,1.482H87.056z"/>
	<path fill="#82A03A" d="M86.194,84.188h-2.352c-0.257,0-0.466,0.208-0.466,0.466v2.363c0,0.257,0.209,0.466,0.466,0.466h2.352
		c0.257,0,0.466-0.209,0.466-0.466v-2.363C86.66,84.397,86.451,84.188,86.194,84.188z M85.728,86.541h-1.421V85.12h1.421V86.541z"/>
	<path fill="#82A03A" d="M81.67,84.188h-2.352c-0.257,0-0.466,0.208-0.466,0.466v2.363c0,0.257,0.208,0.466,0.466,0.466h2.352
		c0.257,0,0.466-0.209,0.466-0.466v-2.363C82.136,84.397,81.927,84.188,81.67,84.188z M81.204,86.541h-1.421V85.12h1.421V86.541z"/>
	<path fill="#82A03A" d="M77.143,84.188h-2.352c-0.257,0-0.466,0.208-0.466,0.466v2.363c0,0.257,0.208,0.466,0.466,0.466h2.352
		c0.257,0,0.466-0.209,0.466-0.466l0,0v-2.363C77.609,84.397,77.4,84.188,77.143,84.188z M76.678,86.541h-1.421V85.12h1.421V86.541z
		"/>
	<path fill="#82A03A" d="M86.194,79.651h-2.352c-0.257,0-0.466,0.208-0.466,0.466v2.352c0,0.257,0.209,0.466,0.466,0.466h2.352
		c0.257,0,0.466-0.208,0.466-0.466v-2.352C86.66,79.86,86.451,79.651,86.194,79.651z M85.728,82.004h-1.421v-1.421h1.421V82.004z"/>
	<path fill="#82A03A" d="M81.67,79.651h-2.352c-0.257,0-0.466,0.208-0.466,0.466v2.352c0,0.257,0.208,0.466,0.466,0.466h2.352
		c0.257,0,0.466-0.208,0.466-0.466v-2.352C82.136,79.86,81.927,79.651,81.67,79.651z M81.204,82.004h-1.421v-1.421h1.421V82.004z"/>
	<path fill="#82A03A" d="M77.143,79.651h-2.352c-0.257,0-0.466,0.208-0.466,0.466v2.352c0,0.257,0.208,0.466,0.466,0.466h2.352
		c0.257,0,0.466-0.208,0.466-0.466v-2.352C77.609,79.86,77.4,79.651,77.143,79.651z M76.678,82.004h-1.421v-1.421h1.421V82.004z"/>
</g>
</svg>
