<svg xmlns="http://www.w3.org/2000/svg" xmlns:xlink="http://www.w3.org/1999/xlink" width="100" height="100" viewBox="0 0 100 100">
  <defs>
    <clipPath id="clip-Cart_">
      <rect width="100" height="100"/>
    </clipPath>
  </defs>
  <g id="Cart_" data-name="Cart " clip-path="url(#clip-Cart_)">
    <g id="shopping-bag" transform="translate(-5.923 1.434)">
      <g id="Group_7394" data-name="Group 7394" transform="translate(44.707)">
        <g id="Group_7393" data-name="Group 7393">
          <path id="Path_10474" data-name="Path 10474" d="M101.908,11.927a13.907,13.907,0,0,0-25-6.216,1.635,1.635,0,1,0,2.641,1.93,10.636,10.636,0,0,1,19.12,4.748,1.637,1.637,0,0,0,1.618,1.405,1.752,1.752,0,0,0,.233-.016A1.636,1.636,0,0,0,101.908,11.927Z" transform="translate(-76.593)" fill="#82a03a"/>
        </g>
      </g>
      <g id="Group_7396" data-name="Group 7396" transform="translate(18.63 21.266)">
        <g id="Group_7395" data-name="Group 7395" transform="translate(0)">
          <path id="Path_10475" data-name="Path 10475" d="M97.2,53.346,92.3,45.166a1.634,1.634,0,0,0-1.4-.794h-4.7a1.636,1.636,0,1,0,0,3.272h3.777l2.945,4.908H26.71l2.945-4.908h1.733a1.636,1.636,0,0,0,0-3.272H28.729a1.634,1.634,0,0,0-1.4.794l-4.908,8.18a1.637,1.637,0,0,0,1.4,2.478H95.8a1.637,1.637,0,0,0,1.4-2.478Z" transform="translate(-22.185 -44.372)" fill="#82a03a"/>
        </g>
      </g>
      <g id="Group_7398" data-name="Group 7398" transform="translate(58.486 9.167)">
        <g id="Group_7397" data-name="Group 7397" transform="translate(0)">
          <path id="Path_10476" data-name="Path 10476" d="M132.353,25.116a1.633,1.633,0,0,0-1.018-.73l-22.3-5.216a1.635,1.635,0,0,0-1.966,1.22l-1.682,7.189a1.636,1.636,0,0,0,3.186.744l1.309-5.6L129,27.2l-3,12.842a1.634,1.634,0,0,0,1.22,1.965,1.654,1.654,0,0,0,.375.043,1.634,1.634,0,0,0,1.59-1.263l3.376-14.435A1.629,1.629,0,0,0,132.353,25.116Z" transform="translate(-105.343 -19.126)" fill="#82a03a"/>
        </g>
      </g>
      <g id="Group_7400" data-name="Group 7400" transform="translate(25.009 4.972)">
        <g id="Group_7399" data-name="Group 7399" transform="translate(0)">
          <path id="Path_10477" data-name="Path 10477" d="M67.607,24.425,66.116,11.818A1.637,1.637,0,0,0,64.3,10.385L36.938,13.619a1.636,1.636,0,0,0-1.432,1.817l2.485,21.027a1.636,1.636,0,0,0,1.623,1.445,1.788,1.788,0,0,0,.195-.012,1.637,1.637,0,0,0,1.432-1.817l-2.293-19.4,24.113-2.85,1.3,10.983a1.636,1.636,0,0,0,3.249-.383Z" transform="translate(-35.494 -10.374)" fill="#82a03a"/>
        </g>
      </g>
      <g id="Group_7402" data-name="Group 7402" transform="translate(37.232 15.706)">
        <g id="Group_7401" data-name="Group 7401" transform="translate(0)">
          <path id="Path_10478" data-name="Path 10478" d="M93.825,47.525l-3.247-13.5A1.634,1.634,0,0,0,88.6,32.814L62.251,39.152a1.636,1.636,0,0,0-1.208,1.973l1.623,6.749a1.636,1.636,0,1,0,3.181-.765l-1.241-5.159,23.173-5.572,2.865,11.912a1.636,1.636,0,0,0,3.182-.766Z" transform="translate(-60.997 -32.769)" fill="#82a03a"/>
        </g>
      </g>
      <g id="Group_7404" data-name="Group 7404" transform="translate(15.359 29.447)">
        <g id="Group_7403" data-name="Group 7403">
          <path id="Path_10479" data-name="Path 10479" d="M93.882,62.993a1.637,1.637,0,0,0-1.634-1.552H20.267a1.636,1.636,0,0,0-1.634,1.552l-3.272,63.8a1.635,1.635,0,0,0,1.634,1.72H95.519a1.635,1.635,0,0,0,1.635-1.72ZM18.716,125.242l3.1-60.529H90.693l3.1,60.529Z" transform="translate(-15.359 -61.441)" fill="#82a03a"/>
        </g>
      </g>
      <g id="Group_7406" data-name="Group 7406" transform="translate(63.618 35.99)">
        <g id="Group_7405" data-name="Group 7405" transform="translate(0)">
          <path id="Path_10480" data-name="Path 10480" d="M120.96,75.093A4.908,4.908,0,1,0,125.868,80,4.913,4.913,0,0,0,120.96,75.093Zm0,6.544A1.636,1.636,0,1,1,122.6,80,1.637,1.637,0,0,1,120.96,81.637Z" transform="translate(-116.052 -75.093)" fill="#82a03a"/>
        </g>
      </g>
      <g id="Group_7408" data-name="Group 7408" transform="translate(39.08 35.99)">
        <g id="Group_7407" data-name="Group 7407">
          <path id="Path_10481" data-name="Path 10481" d="M69.76,75.093A4.908,4.908,0,1,0,74.668,80,4.913,4.913,0,0,0,69.76,75.093Zm0,6.544A1.636,1.636,0,1,1,71.4,80,1.638,1.638,0,0,1,69.76,81.637Z" transform="translate(-64.852 -75.093)" fill="#82a03a"/>
        </g>
      </g>
      <g id="Group_7410" data-name="Group 7410" transform="translate(42.352 40.898)">
        <g id="Group_7409" data-name="Group 7409" transform="translate(0)">
          <path id="Path_10482" data-name="Path 10482" d="M97.854,85.333h-.126a1.636,1.636,0,0,0-1.636,1.636,1.617,1.617,0,0,0,.126.631v8.367a10.634,10.634,0,0,1-21.267,0v-9a1.636,1.636,0,0,0-3.272,0v9a13.905,13.905,0,0,0,27.81,0v-9A1.637,1.637,0,0,0,97.854,85.333Z" transform="translate(-71.679 -85.333)" fill="#82a03a"/>
        </g>
      </g>
    </g>
  </g>
</svg>
