<svg id="Capa_1" fill="#87a442" enable-background="new 0 0 512 512" height="30" viewBox="0 0 512 512" width="30" xmlns="http://www.w3.org/2000/svg"><g><path d="m179.95 261.707v-36.707c0-24.814-20.186-45-45-45s-45 20.186-45 45v36.707c14.145 5.043 29.145 8.293 45 8.293s30.855-3.25 45-8.293z"/><circle cx="134.95" cy="105" r="15"/><path d="m134.95 0c-74.443 0-134.9 60.557-134.9 135 0 46.701 23.759 87.898 59.9 112.147v-22.147c0-41.353 33.647-75 75-75-24.814 0-45-20.186-45-45s20.186-45 45-45 45 20.186 45 45-20.186 45-45 45c41.353 0 75 33.647 75 75v22.147c36.141-24.249 60-65.446 60-112.147 0-74.443-60.557-135-135-135z"/><circle cx="376.95" cy="347" r="15"/><path d="m376.95 422c-24.814 0-45 20.186-45 45v36.707c14.145 5.043 29.145 8.293 45 8.293s30.855-3.25 45-8.293v-36.707c0-24.814-20.186-45-45-45z"/><path d="m376.95 242c-74.443 0-135 60.557-135 135 0 46.701 23.859 87.898 60 112.147v-22.147c0-41.353 33.647-75 75-75-24.814 0-45-20.186-45-45s20.186-45 45-45 45 20.186 45 45-20.186 45-45 45c41.353 0 75 33.647 75 75v22.147c36.141-24.249 60-65.446 60-112.147 0-74.443-60.557-135-135-135z"/><path d="m143.739 375 15 15h-53.789c-8.276 0-15-6.724-15-15v-75h-30v75c0 24.814 20.186 45 45 45h53.789l-15 15 21.211 21.211 51.211-51.211-51.211-51.211z"/><path d="m366.161 135-15-15h53.789c8.276 0 15 6.724 15 15v75h30v-75c0-24.814-20.186-45-45-45h-53.789l15-15-21.211-21.211-51.211 51.211 51.211 51.211z"/></g></svg>