<svg width="41px" height="41px" viewBox="0 0 58 58" version="1.1" xmlns="http://www.w3.org/2000/svg" xmlns:xlink="http://www.w3.org/1999/xlink">
	<defs></defs>
	<g id="Symbols" stroke="none" stroke-width="1" fill="none" fill-rule="evenodd" stroke-linecap="round">
		<g id="icon-/-outline-/-smartphone-/-black" stroke="#719E19">
			<g id="icon/outline/smartphone/black/OS-01" transform="translate(17.000000, 7.000000)">
				<path d="M30,45.6896552 C30,48.0603448 28.0147059,50 25.5882353,50 L4.41176471,50 C1.98529412,50 0,48.0603448 0,45.6896552 L0,4.31034483 C0,1.93965517 1.98529412,0 4.41176471,0 L25.5882353,0 C28.0147059,0 30,1.93965517 30,4.31034483 L30,45.6896552 L30,45.6896552 Z" id="Stroke-1"></path>
				<path d="M0,8 L30,8" id="Stroke-3"></path>
				<path d="M0,41 L30,41" id="Stroke-5"></path>
				<path d="M9,3 L21,3" id="Stroke-7"></path>
				<path d="M17,45.5 C17,46.328 16.32875,47 15.5,47 C14.672,47 14,46.328 14,45.5 C14,44.67125 14.672,44 15.5,44 C16.32875,44 17,44.67125 17,45.5 L17,45.5 Z" id="Stroke-9"></path>
			</g>
		</g>
	</g>
</svg>