<?xml version="1.0" encoding="utf-8"?>
<svg id="ICON" xmlns="http://www.w3.org/2000/svg" viewBox="0 0 108 128"><title>partner-portal</title><g id="partner-portal"><path d="M24,41.224a12,12,0,1,1,12-12A12.013,12.013,0,0,1,24,41.224Zm0-20a8,8,0,1,0,8,8A8.009,8.009,0,0,0,24,21.224Zm60,20a12,12,0,1,1,12-12A12.013,12.013,0,0,1,84,41.224Zm0-20a8,8,0,1,0,8,8A8.009,8.009,0,0,0,84,21.224ZM54.173,32a16,16,0,1,1,16-16A16.019,16.019,0,0,1,54.173,32Zm0-28a12,12,0,1,0,12,12A12.013,12.013,0,0,0,54.173,4ZM91.987,70.724c5.051-.582,9.731-1.257,13.909-2.007a2,2,0,0,0,1.606-2.373A24.081,24.081,0,0,0,84,47.224a23.717,23.717,0,0,0-8.676,1.638A34.007,34.007,0,0,0,54,41.224a34.908,34.908,0,0,0-21.311,7.643A23.7,23.7,0,0,0,24,47.224,24.081,24.081,0,0,0,.5,66.344,2,2,0,0,0,2.1,68.717c4.178.75,8.858,1.425,13.909,2.007a2,2,0,1,0,.457-3.975c-4.123-.475-7.991-1.012-11.53-1.6A20.084,20.084,0,0,1,24,51.224a19.812,19.812,0,0,1,8.226,1.788,2,2,0,0,0,2.159-.332A30.582,30.582,0,0,1,54,45.224a29.728,29.728,0,0,1,19.6,7.442,2,2,0,0,0,2.173.346A19.812,19.812,0,0,1,84,51.224a20.084,20.084,0,0,1,19.06,13.923c-3.539.59-7.407,1.127-11.53,1.6a2,2,0,0,0,.226,3.987A2.234,2.234,0,0,0,91.987,70.724Z" style="fill:#0b9dcc"/><path d="M101.582,75.791,79.854,54.063a6.007,6.007,0,0,0-8.485,0l-5.921,5.922a6,6,0,0,0-.823,7.44l-6.969,6.968a2.713,2.713,0,0,1-.58.428C55.409,73.96,53.51,73.195,51.5,72.4a41.859,41.859,0,0,1-8.56-4.14,6,6,0,0,0-.172-8.274l-5.922-5.922a6.005,6.005,0,0,0-8.485,0L6.633,75.791a6.008,6.008,0,0,0,0,8.485L12.556,90.2a5.985,5.985,0,0,0,6.429,1.338c.927,1.114,3.771,4.5,7.756,8.879a5.466,5.466,0,0,0,3.328,8.933,5.463,5.463,0,0,0,5.309,6.278,5.476,5.476,0,0,0,6.648,5.261,5.4,5.4,0,0,0,9.785,2.956c2.654,1.995,4.33,3.112,4.416,3.169.02.013.043.017.063.029.043.027.081.059.127.083a7.673,7.673,0,0,0,3.5.876,5.879,5.879,0,0,0,4.207-1.653,4.274,4.274,0,0,0,1.216-2.318c.165.013.331.026.493.026a5.132,5.132,0,0,0,3.667-1.43,4.56,4.56,0,0,0,1.246-2.585,5.593,5.593,0,0,0,.649.064,5.5,5.5,0,0,0,5.5-5.47,5.495,5.495,0,0,0,2.941-9.311l-1.43-1.43c1.189-1.277,3.128-3.419,5.761-6.532a48.8,48.8,0,0,0,4.513-6.1A5.917,5.917,0,0,0,95.66,90.2l5.922-5.922A6.005,6.005,0,0,0,101.582,75.791ZM15.384,87.37,9.463,81.448a2,2,0,0,1,0-2.829L31.191,56.892a2,2,0,0,1,2.829,0l5.921,5.921a2.005,2.005,0,0,1,0,2.829L38.588,67l-.006,0,0,0L18.213,87.37A2,2,0,0,1,15.384,87.37Zm14.5,15.488a1.512,1.512,0,0,1,.488-.327l.022-.006a1.508,1.508,0,0,1,1.624,2.468,1.545,1.545,0,0,1-2.134,0A1.513,1.513,0,0,1,29.884,102.858Zm4.549,6.2,3.307-3.308h0a1.509,1.509,0,1,1,2.134,2.134L36.567,111.2a1.509,1.509,0,0,1-2.134-2.134Zm5.376,7.508a1.5,1.5,0,0,1,0-2.132l3.307-3.309a1.51,1.51,0,0,1,2.135,2.135l-3.309,3.307A1.54,1.54,0,0,1,39.809,116.57Zm6.616,4.964a1.509,1.509,0,0,1,1.067-2.576,1.494,1.494,0,0,1,1.066.441,1.512,1.512,0,0,1,0,2.135A1.544,1.544,0,0,1,46.425,121.534Zm30.584-11.248a1.511,1.511,0,0,1-2.134,0l-.827-.827L69.5,104.91a2,2,0,0,0-2.828,2.828l4.549,4.549.827.827.413.413a1.508,1.508,0,0,1,0,2.134,1.544,1.544,0,0,1-2.133,0L65.364,110.7a2,2,0,0,0-2.829,2.828l3.392,3.392a3.56,3.56,0,0,1,.843,1.777,1.509,1.509,0,0,1-.1,1.1,1.361,1.361,0,0,1-1.068.245,2.543,2.543,0,0,1-1.48-.659l-2.894-2.895a2,2,0,1,0-2.828,2.828l2.066,2.067v0c.747.747,1.156,1.8.827,2.134-.716.715-2.025.546-2.974.081-.5-.336-2.53-1.73-5.4-3.938a5.384,5.384,0,0,0-4.093-4.517,5.486,5.486,0,0,0-4.523-8.443,5.465,5.465,0,0,0-8.195-4.659,5.4,5.4,0,0,0-5.726-3.57c-4.162-4.547-7.184-8.127-8.232-9.385L40.107,71.134c2.833,2.162,6.56,3.652,9.922,4.984l.131.052a17.031,17.031,0,0,0-9.045,4.839l-4.134,4.135a6.678,6.678,0,0,0,9.443,9.445l4.136-4.136c1.635-1.634,4.837-3.915,7.924-.827l18.525,18.525A1.513,1.513,0,0,1,77.009,110.286Zm4.106-15.509c-2.5,2.956-4.376,5.033-5.539,6.285L61.312,86.8c-3.874-3.874-9.2-3.549-13.58.827L43.6,91.76a2.743,2.743,0,0,1-3.788,0,2.679,2.679,0,0,1,0-3.788l4.134-4.134c3.387-3.388,6.642-3.782,9.789-4.164a20.583,20.583,0,0,0,3.747-.7c.041-.01.079-.029.119-.041a7.144,7.144,0,0,0,2.886-1.714l6.856-6.857L85.6,88.618A41.19,41.19,0,0,1,81.115,94.777ZM98.754,81.448,92.832,87.37a2,2,0,0,1-2.829,0L68.276,65.642a2,2,0,0,1,0-2.829L74.2,56.892a2,2,0,0,1,2.828,0L98.754,78.619A2,2,0,0,1,98.754,81.448Z" style="fill:#001b41"/></g></svg>