<?xml version="1.0" ?><!DOCTYPE svg  PUBLIC '-//W3C//DTD SVG 1.1//EN'  'http://www.w3.org/Graphics/SVG/1.1/DTD/svg11.dtd'><svg height="100%" style="fill-rule:evenodd;clip-rule:evenodd;stroke-linejoin:round;stroke-miterlimit:2;" version="1.1" viewBox="0 0 24 24" width="100%" xml:space="preserve" xmlns="http://www.w3.org/2000/svg" xmlns:serif="http://www.serif.com/" xmlns:xlink="http://www.w3.org/1999/xlink"><g id="Icon"><path d="M16.25,18.689l-0,-12.189c0,-0.414 0.336,-0.75 0.75,-0.75c0.414,0 0.75,0.336 0.75,0.75l-0,12.189l2.72,-2.719c0.292,-0.293 0.768,-0.293 1.06,-0c0.293,0.292 0.293,0.768 0,1.06c0,0 -2.144,2.145 -3.293,3.293c-0.328,0.328 -0.773,0.513 -1.237,0.513c-0.464,-0 -0.909,-0.185 -1.237,-0.513c-1.149,-1.148 -3.293,-3.293 -3.293,-3.293c-0.293,-0.292 -0.293,-0.768 -0,-1.06c0.292,-0.293 0.768,-0.293 1.06,-0l2.72,2.719Zm-10,-12.378l-2.72,2.719c-0.292,0.293 -0.768,0.293 -1.06,0c-0.293,-0.292 -0.293,-0.768 -0,-1.06c-0,-0 2.144,-2.145 3.293,-3.293c0.328,-0.328 0.773,-0.513 1.237,-0.513c0.464,0 0.909,0.185 1.237,0.513c1.149,1.148 3.293,3.293 3.293,3.293c0.293,0.292 0.293,0.768 0,1.06c-0.292,0.293 -0.768,0.293 -1.06,0l-2.72,-2.719l0,12.189c0,0.414 -0.336,0.75 -0.75,0.75c-0.414,0 -0.75,-0.336 -0.75,-0.75l-0,-12.189Z"/></g></svg>